<?xml version="1.0"?>
<svg xmlns="http://www.w3.org/2000/svg" xmlns:xlink="http://www.w3.org/1999/xlink" data-noselect="" viewBox="0 0 800 600" width="1600" height="1200" preserveAspectRatio="none" version="1.1"><defs/> <g id="background" data-noselect=""><rect fill="#ffffff" width="800" height="600" data-noselect=""/> <!----></g> <g id="shape_F713obg7mh" transform="translate(239.73339125366,197.72598840275998) rotate(0,55.472249269718,60) scale(1,1)" filter="" style="cursor: move; opacity: 1;"><g><svg xmlns="http://www.w3.org/2000/svg" xmlns:xlink="http://www.w3.org/1999/xlink" version="1.1" id="&#x56FE;&#x5C42;_1" x="0px" y="0px" width="110.94449853944" height="120" viewBox="0 0 189.9 205.4" style="enable-background:new 0 0 189.9 205.4;" xml:space="preserve" class="style-removed" preserveAspectRatio="none" data-parent="shape_F713obg7mh">

<g>
	<path d="M97.6,61.7c0,3.1-0.3,6.2-0.9,9.2L81.5,60.4v36.8c-8.3,7.2-19.1,11.6-31,11.6c-1.7,0-3.4-0.1-5-0.3   C21.8,106.1,3.4,86.1,3.4,61.7c0-26,21.1-47.1,47.1-47.1c19.3,0,35.9,11.6,43.2,28.2C96.2,48.6,97.6,55,97.6,61.7z" fill="#F15022" stroke-width="0"/>
	<circle cx="160.7" cy="129.6" r="29.3" fill="#FFB800" stroke-width="0"/>
	<circle cx="33.9" cy="171.5" r="33.9" fill="#7FB900" stroke-width="0"/>
	<path d="M101.5,42.3c-2.7,0-5.3,0.2-7.8,0.5c-27.7,3.8-49,27.6-49,56.3c0,3.2,0.3,6.4,0.8,9.5   c4.5,26.8,27.9,47.3,56,47.3c12.8,0,24.5-4.2,34-11.3c13.5-10.1,22.4-26.1,22.8-44.2c0-0.5,0-0.9,0-1.4   C158.4,67.7,132.9,42.3,101.5,42.3z M81.5,137.7V60.4l15.3,10.5l41.1,28.2L81.5,137.7z" fill="#00A3EE" stroke-width="0"/>
	<circle cx="132.7" cy="14.6" r="14.6" fill="#0072C5" stroke-width="0"/>
</g>
</svg></g></g><g id="shape_8Tg32KRms6" transform="translate(212.83660874634,81.98401159723994) rotate(0,238.66792226786,249.79000000000002) scale(1,1)" filter="" style="cursor: move; opacity: 1;"><g><svg xmlns="http://www.w3.org/2000/svg" xmlns:xlink="http://www.w3.org/1999/xlink" version="1.1" width="555.72" height="499.58000000000004" viewBox="0 0 555.72 499.58000000000004" data-parent="shape_8Tg32KRms6"><g data-width="277.72" transform="translate(69.43, 0)"><path d="M3.12-36.27L3.12-52.75Q3.12-54.31 4.68-54.31L4.68-54.31L38.17-54.31Q39.73-54.31 39.73-52.75L39.73-52.75L39.73-36.27Q39.73-34.72 38.17-34.72L38.17-34.72L4.68-34.72Q3.12-34.72 3.12-36.27L3.12-36.27ZM65.23-52.28Q60.07-36.34 45.70-31.26L45.70-31.26Q44.41-30.78 43.80-32.00L43.80-32.00L43.53-32.55Q43.05-33.43 43.66-34.17L43.66-34.17Q50.31-43.26 54.51-53.36L54.51-53.36Q54.92-54.31 56.01-54.31L56.01-54.31L63.73-54.31Q64.55-54.31 65.02-53.70L65.02-53.70Q65.50-53.02 65.23-52.28L65.23-52.28ZM66.38-31.26Q60.21-15.39 45.70-10.31L45.70-10.31Q44.41-9.83 43.80-11.12L43.80-11.12L43.53-11.59Q43.05-12.48 43.73-13.29L43.73-13.29Q51.06-22.31 55.80-32.55L55.80-32.55Q56.28-33.43 57.23-33.43L57.23-33.43L64.96-33.43Q65.77-33.43 66.24-32.75L66.24-32.75Q66.72-32.07 66.38-31.26L66.38-31.26ZM67.53-10.31Q60.28 5.49 45.70 10.58L45.70 10.58Q44.41 11.05 43.80 9.83L43.80 9.83L43.53 9.36Q43.05 8.41 43.73 7.59L43.73 7.59Q51.73-1.49 57.09-11.66L57.09-11.66Q57.56-12.54 58.51-12.54L58.51-12.54L66.11-12.54Q66.99-12.54 67.40-11.80L67.40-11.80Q67.87-11.05 67.53-10.31L67.53-10.31ZM3.12-10.17L3.12-22.71Q3.12-24.27 4.68-24.27L4.68-24.27L38.17-24.27Q39.73-24.27 39.73-22.71L39.73-22.71L39.73-10.17Q39.73-8.61 38.17-8.61L38.17-8.61L26.65-8.61L26.65-2.03Q26.65 4.88 21.83 8.34L21.83 8.34Q18.85 10.44 14.71 10.92L14.71 10.92Q13.63 11.05 13.15 10.10L13.15 10.10L12.81 9.42Q12.34 8.48 13.09 7.66L13.09 7.66Q16.20 4.34 16.20-2.03L16.20-2.03L16.20-8.61L4.68-8.61Q3.12-8.61 3.12-10.17L3.12-10.17ZM29.29-14.10L29.29-18.78Q29.29-20.34 27.73-20.34L27.73-20.34L15.19-20.34Q13.56-20.34 13.56-18.78L13.56-18.78L13.56-14.10Q13.56-12.54 15.19-12.54L15.19-12.54L27.73-12.54Q29.29-12.54 29.29-14.10L29.29-14.10ZM13.42-4.20Q11.80 7.80 3.19 10.65L3.19 10.65Q1.90 11.12 1.29 9.90L1.29 9.90L0.81 9.02Q0.54 8.41 0.75 7.80L0.75 7.80Q2.85 1.83 3.12-4.47L3.12-4.47Q3.19-5.97 4.68-5.97L4.68-5.97L11.87-5.97Q12.54-5.97 13.02-5.42L13.02-5.42Q13.49-4.88 13.42-4.20L13.42-4.20ZM29.56-4.14L31.66 8.41Q31.87 9.70 33.22 9.70L33.22 9.70L40.48 9.70Q41.22 9.70 41.70 9.15L41.70 9.15Q42.17 8.61 42.04 7.87L42.04 7.87L39.94-4.68Q39.73-5.97 38.38-5.97L38.38-5.97L31.12-5.97Q30.38-5.97 29.90-5.42L29.90-5.42Q29.43-4.88 29.56-4.14L29.56-4.14ZM2.10-30.78L16.20-30.78L16.20-31.87Q16.20-33.43 17.76-33.43L17.76-33.43L25.09-33.43Q26.65-33.43 26.65-31.87L26.65-31.87L26.65-30.78L40.75-30.78Q42.31-30.78 42.31-29.22L42.31-29.22L42.31-28.48Q42.31-26.92 40.75-26.92L40.75-26.92L2.10-26.92Q0.54-26.92 0.54-28.48L0.54-28.48L0.54-29.22Q0.54-30.78 2.10-30.78L2.10-30.78ZM13.56-48.82L13.56-46.51L29.29-46.51L29.29-48.82Q29.29-50.45 27.73-50.45L27.73-50.45L15.19-50.45Q13.56-50.45 13.56-48.82L13.56-48.82ZM29.29-40.21L29.29-42.58L13.56-42.58L13.56-40.21Q13.56-38.65 15.19-38.65L15.19-38.65L27.73-38.65Q29.29-38.65 29.29-40.21L29.29-40.21Z" transform="translate(0 275.29) " fill="rgb(51, 67, 78)" stroke="rgb(51, 67, 78)" stroke-width="0.116" data-glyph-w="69.43" data-glyph-h="67.802734375" data-glyph-ascender="59.66640625000001" data-glyph-descender="-8.136328125"/><path d="M23.80-45.16L3.39-45.16Q1.83-45.16 1.83-43.60L1.83-43.60L1.83-42.85Q1.83-41.29 3.39-41.29L3.39-41.29L12.95-41.29Q13.70-41.29 14.17-40.68L14.17-40.68Q14.65-40.07 14.44-39.33L14.44-39.33Q11.39-28.00 1.22-15.93L1.22-15.93Q0.54-15.12 1.02-14.17L1.02-14.17L1.22-13.76Q1.83-12.48 3.19-13.02L3.19-13.02Q6.44-14.31 9.70-16.61L9.70-16.61L9.70 9.42Q9.70 10.98 11.26 10.98L11.26 10.98L18.58 10.98Q20.14 10.98 20.14 9.42L20.14 9.42L20.14-27.93Q23.66-33.77 25.29-41.09L25.29-41.09Q25.36-41.29 25.36-41.43L25.36-41.43L25.36-43.60Q25.36-45.16 23.80-45.16L23.80-45.16ZM52.07-11.19L56.48-11.19Q58.04-11.19 58.04-9.63L58.04-9.63L58.04 3.19Q58.04 5.76 60.62 5.76L60.62 5.76L66.92 5.76Q68.48 5.76 68.48 7.32L68.48 7.32L68.48 8.14Q68.48 9.70 66.92 9.70L66.92 9.70L55.39 9.70Q50.51 9.70 48.55 5.76L48.55 5.76Q47.60 3.80 47.60 1.83L47.60 1.83L47.60-1.15Q41.43 8.48 31.80 10.71L31.80 10.71Q30.58 11.05 30.04 9.90L30.04 9.90L29.83 9.42Q29.29 8.41 30.10 7.59L30.10 7.59Q43.66-5.02 43.66-25.56L43.66-25.56L43.66-43.60Q43.66-45.16 45.22-45.16L45.22-45.16L52.55-45.16Q54.11-45.16 54.11-43.60L54.11-43.60L54.11-25.56Q54.11-18.04 52.07-11.19L52.07-11.19ZM30.58-14.10L30.58-52.75Q30.58-54.31 32.14-54.31L32.14-54.31L65.63-54.31Q67.19-54.31 67.19-52.75L67.19-52.75L67.19-14.10Q67.19-12.54 65.63-12.54L65.63-12.54L58.31-12.54Q56.68-12.54 56.68-14.10L56.68-14.10L56.68-48.82Q56.68-50.45 55.12-50.45L55.12-50.45L42.58-50.45Q41.02-50.45 41.02-48.82L41.02-48.82L41.02-14.10Q41.02-12.54 39.46-12.54L39.46-12.54L32.14-12.54Q30.58-12.54 30.58-14.10L30.58-14.10ZM21.97-12.61L20.88-23.87Q20.88-24.54 21.29-25.09L21.29-25.09Q21.76-25.56 22.44-25.56L22.44-25.56L26.51-25.56Q27.93-25.56 28.07-24.14L28.07-24.14L29.09-12.95Q29.16-12.20 28.68-11.73L28.68-11.73Q28.27-11.19 27.53-11.19L27.53-11.19L23.53-11.19Q22.04-11.19 21.97-12.61L21.97-12.61ZM8.20-49.16L7.32-55.19Q7.19-55.87 7.66-56.41L7.66-56.41Q8.14-56.95 8.88-56.95L8.88-56.95L16.14-56.95Q17.49-56.95 17.70-55.60L17.70-55.60L18.58-49.56Q18.65-48.89 18.17-48.34L18.17-48.34Q17.70-47.80 17.02-47.80L17.02-47.80L9.70-47.80Q8.34-47.80 8.20-49.16L8.20-49.16Z" transform="translate(69.43 275.29) " fill="rgb(51, 67, 78)" stroke="rgb(51, 67, 78)" stroke-width="0.116" data-glyph-w="69.43" data-glyph-h="67.802734375" data-glyph-ascender="59.66640625000001" data-glyph-descender="-8.136328125"/><path d="M2.10-39.94L29.22-39.94Q29.29-41.29 29.29-42.58L29.29-42.58L29.29-55.39Q29.29-56.95 30.85-56.95L30.85-56.95L38.17-56.95Q39.73-56.95 39.73-55.39L39.73-55.39L39.73-42.58Q39.73-41.29 39.66-39.94L39.66-39.94L66.92-39.94Q68.48-39.94 68.48-38.38L68.48-38.38L68.48-37.63Q68.48-36.07 66.92-36.07L66.92-36.07L40.14-36.07Q43.60-10.03 67.40 7.59L67.40 7.59Q68.48 8.41 67.87 9.56L67.87 9.56L67.80 9.76Q67.19 10.98 65.84 10.58L65.84 10.58Q43.87 3.05 34.51-18.10L34.51-18.10Q25.09 3.05 3.12 10.58L3.12 10.58Q1.83 10.98 1.22 9.76L1.22 9.76L1.08 9.56Q0.54 8.41 1.56 7.59L1.56 7.59Q25.43-10.03 28.82-36.07L28.82-36.07L2.10-36.07Q0.54-36.07 0.54-37.63L0.54-37.63L0.54-38.38Q0.54-39.94 2.10-39.94L2.10-39.94Z" transform="translate(138.86 275.29) " fill="rgb(51, 67, 78)" stroke="rgb(51, 67, 78)" stroke-width="0.116" data-glyph-w="69.43" data-glyph-h="67.802734375" data-glyph-ascender="59.66640625000001" data-glyph-descender="-8.136328125"/><path d="M34.51-46.24Q26.51-34.72 13.02-29.49L13.02-29.49L56.01-29.49Q42.51-34.72 34.51-46.24L34.51-46.24ZM60.62-28.00L60.62-27.19Q60.62-25.56 59.06-25.56L59.06-25.56L39.73-25.56L39.73-12.54L61.70-12.54Q63.26-12.54 63.26-10.98L63.26-10.98L63.26-10.17Q63.26-8.61 61.70-8.61L61.70-8.61L39.73-8.61L39.73 5.76L65.63 5.76Q67.19 5.76 67.19 7.32L67.19 7.32L67.19 8.14Q67.19 9.70 65.63 9.70L65.63 9.70L3.39 9.70Q1.83 9.70 1.83 8.14L1.83 8.14L1.83 7.32Q1.83 5.76 3.39 5.76L3.39 5.76L29.29 5.76L29.29-8.61L7.32-8.61Q5.76-8.61 5.76-10.17L5.76-10.17L5.76-10.98Q5.76-12.54 7.32-12.54L7.32-12.54L29.29-12.54L29.29-25.56L9.90-25.56Q8.34-25.56 8.34-27.19L8.34-27.19L8.34-28.00Q5.63-27.32 2.92-26.99L2.92-26.99Q1.83-26.85 1.36-27.87L1.36-27.87L1.22-28.14Q0.54-29.49 1.90-30.24L1.90-30.24Q20.34-39.94 28.82-56.14L28.82-56.14Q29.29-56.95 30.24-56.95L30.24-56.95L38.78-56.95Q39.73-56.95 40.14-56.14L40.14-56.14Q48.68-39.94 67.12-30.24L67.12-30.24Q68.48-29.49 67.80-28.14L67.80-28.14L67.67-27.87Q67.19-26.85 66.11-26.99L66.11-26.99Q63.40-27.32 60.62-28.00L60.62-28.00Z" transform="translate(208.29000000000002 275.29) " fill="rgb(51, 67, 78)" stroke="rgb(51, 67, 78)" stroke-width="0.116" data-glyph-w="69.43" data-glyph-h="67.802734375" data-glyph-ascender="59.66640625000001" data-glyph-descender="-8.136328125"/></g></svg></g></g><g id="shape_RIwAo97quh" transform="translate(259.63660874634,307.38401159724) rotate(0,161.82452971373,81.39) scale(1,1)" filter="" style="cursor: move; opacity: 1;"><g><svg xmlns="http://www.w3.org/2000/svg" xmlns:xlink="http://www.w3.org/1999/xlink" version="1.1" width="341.52" height="162.78" viewBox="0 0 341.52 162.78" data-parent="shape_RIwAo97quh"><g data-width="250.64501808593752" transform="translate(22.63, 0)"><path d="M3.05 0L1.94 0L1.94-16.24L1.94-16.24L13.19-16.24L13.19-16.24L13.19-15.27L13.19-14.30L13.19-14.30L4.14-14.30L4.14-14.30L4.14-9.34L4.14-9.34L12.07-9.34L12.07-8.36L12.07-7.39L12.07-7.39L4.14-7.39L4.14-7.39L4.14 0L3.05 0Z" transform="translate(0 88.89) " fill="rgb(51, 67, 78)" stroke="rgb(51, 67, 78)" stroke-width="0.038" data-glyph-w="13.823305664062499" data-glyph-h="25.9338916015625" data-glyph-ascender="20.99462890625" data-glyph-descender="-4.939262695312499"/><path d="M2.06 0L2.06 0L2.06-16.24L2.06-16.24L3.15-16.24L4.25-16.24L4.25-16.24L4.25 0L4.25 0L3.16 0L2.06 0Z" transform="translate(13.823305664062499 88.89) " fill="rgb(51, 67, 78)" stroke="rgb(51, 67, 78)" stroke-width="0.038" data-glyph-w="6.2873388671875" data-glyph-h="25.9338916015625" data-glyph-ascender="20.99462890625" data-glyph-descender="-4.939262695312499"/><path d="M12.15 0L1.72 0L1.72 0L1.72-16.24L1.72-16.24L2.82-16.24L3.92-16.24L3.92-16.24L3.92-1.94L3.92-1.94L12.15-1.94L12.15-1.94L12.15-0.97L12.15 0L12.15 0Z" transform="translate(20.11064453125 88.89) " fill="rgb(51, 67, 78)" stroke="rgb(51, 67, 78)" stroke-width="0.038" data-glyph-w="12.5857275390625" data-glyph-h="25.9338916015625" data-glyph-ascender="20.99462890625" data-glyph-descender="-4.939262695312499"/><path d="M3.79-13.70L3.79 0L3.79 0L2.73 0L1.66 0L1.66 0L1.66-16.24L1.66-16.24L3.24-16.24L4.82-16.24L4.82-16.24L9.46-2.42L9.46-2.42L9.46-2.42L14.07-16.24L14.07-16.24L15.65-16.24L17.23-16.24L17.23-16.24L17.23 0L17.23 0L16.17 0L15.09 0L15.09 0L15.09-13.75L15.09-13.75L10.51 0L9.45 0L8.39 0L3.79-13.70L3.79-13.70Z" transform="translate(32.6963720703125 88.89) " fill="rgb(51, 67, 78)" stroke="rgb(51, 67, 78)" stroke-width="0.038" data-glyph-w="18.850966796875" data-glyph-h="25.9338916015625" data-glyph-ascender="20.99462890625" data-glyph-descender="-4.939262695312499"/><path d="" transform="translate(51.5473388671875 88.89) " fill="rgb(51, 67, 78)" stroke="rgb(51, 67, 78)" stroke-width="0.038" data-glyph-w="9.00674" data-glyph-h="22.630000000000003" data-glyph-ascender="19.9144" data-glyph-descender="-2.7156000000000002"/><path d="M0.32 0L0.32 0L6.45-16.24L7.70-16.24L8.96-16.24L14.80 0L14.80 0L13.61 0L12.43 0L12.43 0L10.78-4.71L10.78-4.71L4.29-4.71L4.29-4.71L2.59 0L2.59 0L1.46 0L0.32 0ZM7.60-13.86L7.60-13.86L4.99-6.65L4.99-6.65L10.11-6.65L10.11-6.65L7.60-13.86L7.60-13.86Z" transform="translate(60.5540788671875 88.89) " fill="rgb(51, 67, 78)" stroke="rgb(51, 67, 78)" stroke-width="0.038" data-glyph-w="15.094033203124999" data-glyph-h="25.9338916015625" data-glyph-ascender="20.99462890625" data-glyph-descender="-4.939262695312499"/><path d="M3.85-13.25L3.85 0L3.85 0L2.78 0L1.72 0L1.72 0L1.72-16.24L1.72-16.24L3.04-16.24L4.36-16.24L4.36-16.24L12.50-3.04L12.50-3.04L12.50-3.04L12.50-16.24L12.50-16.24L13.56-16.24L14.62-16.24L14.62-16.24L14.62 0L13.41 0L12.21 0L3.85-13.25L3.85-13.25L3.85-13.25Z" transform="translate(75.6481120703125 88.89) " fill="rgb(51, 67, 78)" stroke="rgb(51, 67, 78)" stroke-width="0.038" data-glyph-w="16.3426611328125" data-glyph-h="25.9338916015625" data-glyph-ascender="20.99462890625" data-glyph-descender="-4.939262695312499"/><path d="M1.83 0L1.83 0L1.83-16.24L1.83-16.24L2.93-16.24L2.93-16.24L8.51-16.24Q11.60-16.24 13.43-14.04Q15.26-11.83 15.26-8.11L15.26-8.11Q15.26-4.40 13.39-2.20Q11.51 0 8.33 0L8.33 0L2.93 0L2.93 0L1.83 0ZM4.03-14.36L4.03-1.88L4.03-1.88L8.06-1.88Q10.42-1.88 11.71-3.50Q12.99-5.13 12.99-8.11L12.99-8.11Q12.99-11.11 11.76-12.73Q10.52-14.36 8.24-14.36L8.24-14.36L4.03-14.36L4.03-14.36Z" transform="translate(91.99077320312499 88.89) " fill="rgb(51, 67, 78)" stroke="rgb(51, 67, 78)" stroke-width="0.038" data-glyph-w="16.3426611328125" data-glyph-h="25.9338916015625" data-glyph-ascender="20.99462890625" data-glyph-descender="-4.939262695312499"/><path d="" transform="translate(108.33343433593748 88.89) " fill="rgb(51, 67, 78)" stroke="rgb(51, 67, 78)" stroke-width="0.038" data-glyph-w="9.00674" data-glyph-h="22.630000000000003" data-glyph-ascender="19.9144" data-glyph-descender="-2.7156000000000002"/><path d="M5.81 0L5.81 0L5.81-14.30L5.81-14.30L0.32-14.30L0.32-14.30L0.32-15.27L0.32-16.24L0.32-16.24L13.50-16.24L13.50-16.24L13.50-15.27L13.50-14.30L13.50-14.30L8.01-14.30L8.01-14.30L8.01 0L8.01 0L6.92 0L5.81 0Z" transform="translate(117.34017433593749 88.89) " fill="rgb(51, 67, 78)" stroke="rgb(51, 67, 78)" stroke-width="0.038" data-glyph-w="13.823305664062499" data-glyph-h="25.9338916015625" data-glyph-ascender="20.99462890625" data-glyph-descender="-4.939262695312499"/><path d="M13.94 0L1.94 0L1.94 0L1.94-16.24L1.94-16.24L13.82-16.24L13.82-16.24L13.82-15.27L13.82-14.30L13.82-14.30L4.14-14.30L4.14-14.30L4.14-9.34L4.14-9.34L12.98-9.34L12.98-8.36L12.98-7.39L12.98-7.39L4.14-7.39L4.14-7.39L4.14-1.94L4.14-1.94L13.94-1.94L13.94-1.94L13.94-0.97L13.94 0L13.94 0Z" transform="translate(131.16348 88.89) " fill="rgb(51, 67, 78)" stroke="rgb(51, 67, 78)" stroke-width="0.038" data-glyph-w="15.094033203124999" data-glyph-h="25.9338916015625" data-glyph-ascender="20.99462890625" data-glyph-descender="-4.939262695312499"/><path d="M12.15 0L1.72 0L1.72 0L1.72-16.24L1.72-16.24L2.82-16.24L3.92-16.24L3.92-16.24L3.92-1.94L3.92-1.94L12.15-1.94L12.15-1.94L12.15-0.97L12.15 0L12.15 0Z" transform="translate(146.257513203125 88.89) " fill="rgb(51, 67, 78)" stroke="rgb(51, 67, 78)" stroke-width="0.038" data-glyph-w="12.5857275390625" data-glyph-h="25.9338916015625" data-glyph-ascender="20.99462890625" data-glyph-descender="-4.939262695312499"/><path d="M13.94 0L1.94 0L1.94 0L1.94-16.24L1.94-16.24L13.82-16.24L13.82-16.24L13.82-15.27L13.82-14.30L13.82-14.30L4.14-14.30L4.14-14.30L4.14-9.34L4.14-9.34L12.98-9.34L12.98-8.36L12.98-7.39L12.98-7.39L4.14-7.39L4.14-7.39L4.14-1.94L4.14-1.94L13.94-1.94L13.94-1.94L13.94-0.97L13.94 0L13.94 0Z" transform="translate(158.8432407421875 88.89) " fill="rgb(51, 67, 78)" stroke="rgb(51, 67, 78)" stroke-width="0.038" data-glyph-w="15.094033203124999" data-glyph-h="25.9338916015625" data-glyph-ascender="20.99462890625" data-glyph-descender="-4.939262695312499"/><path d="M6.36 0L0.45-16.24L0.45-16.24L1.67-16.24L2.90-16.24L2.90-16.24L7.56-2.36L7.56-2.36L7.56-2.36L12.21-16.24L12.21-16.24L13.43-16.24L14.64-16.24L14.64-16.24L8.73 0L7.55 0L6.36 0Z" transform="translate(173.9372739453125 88.89) " fill="rgb(51, 67, 78)" stroke="rgb(51, 67, 78)" stroke-width="0.038" data-glyph-w="15.094033203124999" data-glyph-h="25.9338916015625" data-glyph-ascender="20.99462890625" data-glyph-descender="-4.939262695312499"/><path d="M2.06 0L2.06 0L2.06-16.24L2.06-16.24L3.15-16.24L4.25-16.24L4.25-16.24L4.25 0L4.25 0L3.16 0L2.06 0Z" transform="translate(189.03130714843752 88.89) " fill="rgb(51, 67, 78)" stroke="rgb(51, 67, 78)" stroke-width="0.038" data-glyph-w="6.2873388671875" data-glyph-h="25.9338916015625" data-glyph-ascender="20.99462890625" data-glyph-descender="-4.939262695312499"/><path d="M13.65-11.54L11.62-11.54L11.62-11.54Q11.48-13.07 10.41-13.91Q9.35-14.74 7.55-14.74L7.55-14.74Q5.69-14.74 4.73-14.02Q3.77-13.30 3.77-11.92L3.77-11.92Q3.77-10.98 4.41-10.52L4.41-10.52Q5.05-10.06 6.98-9.60L6.98-9.60L9.81-8.93Q12.09-8.39 13.06-7.33L13.06-7.33Q14.03-6.28 14.03-4.35L14.03-4.35Q14.03-2.14 12.36-0.85Q10.69 0.44 7.82 0.44L7.82 0.44Q4.64 0.44 2.85-1.05L2.85-1.05Q1.10-2.52 1.10-5.07L1.10-5.07L1.10-5.19L1.10-5.19L3.13-5.19L3.13-5.19Q3.18-3.43 4.41-2.46Q5.64-1.50 7.82-1.50L7.82-1.50Q9.85-1.50 10.90-2.20Q11.94-2.90 11.94-4.24L11.94-4.24Q11.94-5.41 11.25-5.98L11.25-5.98Q10.56-6.53 8.49-7.03L8.49-7.03L5.66-7.70Q3.51-8.21 2.60-9.12L2.60-9.12Q1.68-10.02 1.68-11.62L1.68-11.62Q1.68-13.96 3.27-15.32Q4.85-16.69 7.55-16.69L7.55-16.69Q10.29-16.69 11.91-15.32Q13.54-13.94 13.65-11.54L13.65-11.54L13.65-11.54Z" transform="translate(195.318646015625 88.89) " fill="rgb(51, 67, 78)" stroke="rgb(51, 67, 78)" stroke-width="0.038" data-glyph-w="15.094033203124999" data-glyph-h="25.9338916015625" data-glyph-ascender="20.99462890625" data-glyph-descender="-4.939262695312499"/><path d="M2.06 0L2.06 0L2.06-16.24L2.06-16.24L3.15-16.24L4.25-16.24L4.25-16.24L4.25 0L4.25 0L3.16 0L2.06 0Z" transform="translate(210.41267921875001 88.89) " fill="rgb(51, 67, 78)" stroke="rgb(51, 67, 78)" stroke-width="0.038" data-glyph-w="6.2873388671875" data-glyph-h="25.9338916015625" data-glyph-ascender="20.99462890625" data-glyph-descender="-4.939262695312499"/><path d="M8.80 0.44L8.80 0.44Q5.26 0.44 3.07-1.92Q0.88-4.28 0.88-8.11L0.88-8.11Q0.88-11.96 3.07-14.32Q5.26-16.69 8.80-16.69L8.80-16.69Q12.35-16.69 14.54-14.32Q16.72-11.96 16.72-8.11L16.72-8.11Q16.72-4.28 14.54-1.92Q12.35 0.44 8.80 0.44L8.80 0.44ZM8.80-1.50L8.80-1.50Q11.34-1.50 12.90-3.33Q14.45-5.15 14.45-8.11L14.45-8.11Q14.45-11.08 12.90-12.91Q11.34-14.74 8.80-14.74L8.80-14.74Q6.27-14.74 4.71-12.91Q3.15-11.08 3.15-8.11L3.15-8.11Q3.15-5.15 4.71-3.33Q6.27-1.50 8.80-1.50L8.80-1.50Z" transform="translate(216.7000180859375 88.89) " fill="rgb(51, 67, 78)" stroke="rgb(51, 67, 78)" stroke-width="0.038" data-glyph-w="17.6023388671875" data-glyph-h="25.9338916015625" data-glyph-ascender="20.99462890625" data-glyph-descender="-4.939262695312499"/><path d="M3.85-13.25L3.85 0L3.85 0L2.78 0L1.72 0L1.72 0L1.72-16.24L1.72-16.24L3.04-16.24L4.36-16.24L4.36-16.24L12.50-3.04L12.50-3.04L12.50-3.04L12.50-16.24L12.50-16.24L13.56-16.24L14.62-16.24L14.62-16.24L14.62 0L13.41 0L12.21 0L3.85-13.25L3.85-13.25L3.85-13.25Z" transform="translate(234.302356953125 88.89) " fill="rgb(51, 67, 78)" stroke="rgb(51, 67, 78)" stroke-width="0.038" data-glyph-w="16.3426611328125" data-glyph-h="25.9338916015625" data-glyph-ascender="20.99462890625" data-glyph-descender="-4.939262695312499"/></g></svg></g></g>  <!----></svg>
